HIERARCHY
ROOT hips
{
  OFFSET 0 10.6860622 2.3727825e-15
  CHANNELS 6 Xposition Yposition Zposition Yrotation Xrotation Zrotation
  JOINT leftUpperLeg
  {
    OFFSET 0.6642549969 -0.9402397400000004 0
    CHANNELS 3 Yrotation Xrotation Zrotation
    JOINT leftLowerLeg
    {
      OFFSET 0 -3.997221335632195 0
      CHANNELS 3 Yrotation Xrotation Zrotation
      JOINT leftFoot
      {
        OFFSET -0.13777839790000004 -4.6145792000000005 -0.22186036399999998
        CHANNELS 3 Yrotation Xrotation Zrotation
        JOINT leftToes
        {
          OFFSET -0.03777410834999995 -0.9130806927000008 0.85230013
          CHANNELS 3 Yrotation Xrotation Zrotation
          End Site
          {
            OFFSET -0.03777410834999995 -0.9130806927000008 0.85230013
          }
        }
      }
    }
  }
  JOINT rightUpperLeg
  {
    OFFSET -0.6642778626 -0.9402397400000004 0
    CHANNELS 3 Yrotation Xrotation Zrotation
    JOINT rightLowerLeg
    {
      OFFSET 0 -3.997221452859387 0
      CHANNELS 3 Yrotation Xrotation Zrotation
      JOINT rightFoot
      {
        OFFSET 0.1377926176 -4.6145792000000005 -0.22185782299999995
        CHANNELS 3 Yrotation Xrotation Zrotation
        JOINT rightToes
        {
          OFFSET 0.037780746850000047 -0.9130806927000008 0.85230167
          CHANNELS 3 Yrotation Xrotation Zrotation
          End Site
          {
            OFFSET 0.037780746850000047 -0.9130806927000008 0.85230167
          }
        }
      }
    }
  }
  JOINT spine
  {
    OFFSET 0 0.13988381660000015 0
    CHANNELS 3 Yrotation Xrotation Zrotation
    JOINT chest
    {
      OFFSET 0 0.6191039003973773 0
      CHANNELS 3 Yrotation Xrotation Zrotation
      JOINT upperChest
      {
        OFFSET 0 0.9855186130586943 0
        CHANNELS 3 Yrotation Xrotation Zrotation
        JOINT leftShoulder
        {
          OFFSET 0.1807663869 1.5087829790000005 0
          CHANNELS 3 Yrotation Xrotation Zrotation
          JOINT leftUpperArm
          {
            OFFSET 0.5985063006419806 0 0
            CHANNELS 3 Yrotation Xrotation Zrotation
            JOINT leftLowerArm
            {
              OFFSET 2.2993332369501065 0 0
              CHANNELS 3 Yrotation Xrotation Zrotation
              JOINT leftHand
              {
                OFFSET 2.395047042602395 0 0
                CHANNELS 3 Yrotation Xrotation Zrotation
                JOINT leftIndexProximal
                {
                  OFFSET 0.5766295810000004 0.04556643899499946 0.17265095988184
                  CHANNELS 3 Yrotation Xrotation Zrotation
                  JOINT leftIndexIntermediate
                  {
                    OFFSET 0.2957229000000008 -0.019352197700001517 -0.007932640616999987
                    CHANNELS 3 Yrotation Xrotation Zrotation
                    JOINT leftIndexDistal
                    {
                      OFFSET 0.19008243099999922 -0.012484908149998475 -0.002786250786000012
                      CHANNELS 3 Yrotation Xrotation Zrotation
                      End Site
                      {
                        OFFSET 0.19008243099999922 -0.012484908149998475 -0.002786250786000012
                      }
                    }
                  }
                }
                JOINT leftMiddleProximal
                {
                  OFFSET 0.5834975091000001 0.0524350405149987 0.02204081888183999
                  CHANNELS 3 Yrotation Xrotation Zrotation
                  JOINT leftMiddleIntermediate
                  {
                    OFFSET 0.33880573540000003 -0.019871473270000717 -0.00000971183179999946
                    CHANNELS 3 Yrotation Xrotation Zrotation
                    JOINT leftMiddleDistal
                    {
                      OFFSET 0.20676022730000088 -0.012221336379999448 0.0001471936708000235
                      CHANNELS 3 Yrotation Xrotation Zrotation
                      End Site
                      {
                        OFFSET 0.20676022730000088 -0.012221336379999448 0.0001471936708000235
                      }
                    }
                  }
                }
                JOINT leftLittleProximal
                {
                  OFFSET 0.5344154683999995 -0.012880921405001189 -0.24414037221816004
                  CHANNELS 3 Yrotation Xrotation Zrotation
                  JOINT leftLittleIntermediate
                  {
                    OFFSET 0.21758961730000093 -0.011650919939999227 0.011893592810000034
                    CHANNELS 3 Yrotation Xrotation Zrotation
                    JOINT leftLittleDistal
                    {
                      OFFSET 0.1475273964999999 -0.008152365682999818 0.006001092492999946
                      CHANNELS 3 Yrotation Xrotation Zrotation
                      End Site
                      {
                        OFFSET 0.1475273964999999 -0.008152365682999818 0.006001092492999946
                      }
                    }
                  }
                }
                JOINT leftRingProximal
                {
                  OFFSET 0.5799399463000003 0.026911854694997794 -0.12150566991816003
                  CHANNELS 3 Yrotation Xrotation Zrotation
                  JOINT leftRingIntermediate
                  {
                    OFFSET 0.26167887460000006 -0.013480186499999602 0.010996293000000053
                    CHANNELS 3 Yrotation Xrotation Zrotation
                    JOINT leftRingDistal
                    {
                      OFFSET 0.17667108799999987 -0.008990287899999228 0.0055541023999999065
                      CHANNELS 3 Yrotation Xrotation Zrotation
                      End Site
                      {
                        OFFSET 0.17667108799999987 -0.008990287899999228 0.0055541023999999065
                      }
                    }
                  }
                }
                JOINT leftThumbProximal
                {
                  OFFSET 0.11018806699999972 -0.09448718900500053 0.17047963138184
                  CHANNELS 3 Yrotation Xrotation Zrotation
                  JOINT leftThumbIntermediate
                  {
                    OFFSET 0.31062601459999983 -0.08126270900000132 0.15443142000000007
                    CHANNELS 3 Yrotation Xrotation Zrotation
                    JOINT leftThumbDistal
                    {
                      OFFSET 0.21627175790000086 -0.08833193599999878 0.018771167799999988
                      CHANNELS 3 Yrotation Xrotation Zrotation
                      End Site
                      {
                        OFFSET 0.21627175790000086 -0.08833193599999878 0.018771167799999988
                      }
                    }
                  }
                }
              }
            }
          }
        }
        JOINT neck
        {
          OFFSET 0 1.5463305265074576 0
          CHANNELS 3 Yrotation Xrotation Zrotation
          JOINT head
          {
            OFFSET 0 0.8456443600000344 0
            CHANNELS 3 Yrotation Xrotation Zrotation
            JOINT leftEye
            {
              OFFSET 0.30408573140000006 0.5104519199999995 0.1276382305
              CHANNELS 3 Yrotation Xrotation Zrotation
              End Site
              {
                OFFSET 0.30408573140000006 0.5104519199999995 0.1276382305
              }
            }
            JOINT rightEye
            {
              OFFSET -0.30409491089999996 0.5104519199999995 0.1276379445
              CHANNELS 3 Yrotation Xrotation Zrotation
              End Site
              {
                OFFSET -0.30409491089999996 0.5104519199999995 0.1276379445
              }
            }
            JOINT jaw
            {
              OFFSET -3.155239131000001e-7 -0.11984121820000082 0.60178107
              CHANNELS 3 Yrotation Xrotation Zrotation
              End Site
              {
                OFFSET -3.155239131000001e-7 -0.11984121820000082 0.60178107
              }
            }
          }
        }
        JOINT rightShoulder
        {
          OFFSET -0.1807303465 1.5087829790000005 0
          CHANNELS 3 Yrotation Xrotation Zrotation
          JOINT rightUpperArm
          {
            OFFSET -0.5985063796536958 0 0
            CHANNELS 3 Yrotation Xrotation Zrotation
            JOINT rightLowerArm
            {
              OFFSET -2.2993322059002854 0 0
              CHANNELS 3 Yrotation Xrotation Zrotation
              JOINT rightHand
              {
                OFFSET -2.395045314457259 0 0
                CHANNELS 3 Yrotation Xrotation Zrotation
                JOINT rightIndexProximal
                {
                  OFFSET -0.5764487688300002 0.0441371204405987 0.17361932004999997
                  CHANNELS 3 Yrotation Xrotation Zrotation
                  JOINT rightIndexIntermediate
                  {
                    OFFSET -0.29573011380000047 -0.01934826376999843 -0.007698921482999974
                    CHANNELS 3 Yrotation Xrotation Zrotation
                    JOINT rightIndexDistal
                    {
                      OFFSET -0.19008373999999884 -0.012503266380000655 -0.0026365778999999897
                      CHANNELS 3 Yrotation Xrotation Zrotation
                      End Site
                      {
                        OFFSET -0.19008373999999884 -0.012503266380000655 -0.0026365778999999897
                      }
                    }
                  }
                }
                JOINT rightMiddleProximal
                {
                  OFFSET -0.5834852037300005 0.05211639405060153 0.02307162440000001
                  CHANNELS 3 Yrotation Xrotation Zrotation
                  JOINT rightMiddleIntermediate
                  {
                    OFFSET -0.33880114510000003 -0.019952774050000954 0.0002455003561999819
                    CHANNELS 3 Yrotation Xrotation Zrotation
                    JOINT rightMiddleDistal
                    {
                      OFFSET -0.20675694929999955 -0.012273788999999091 0.00030209124000002766
                      CHANNELS 3 Yrotation Xrotation Zrotation
                      End Site
                      {
                        OFFSET -0.20675694929999955 -0.012273788999999091 0.00030209124000002766
                      }
                    }
                  }
                }
                JOINT rightLittleProximal
                {
                  OFFSET -0.5346811737299992 -0.011214256288399227 -0.24363941305000003
                  CHANNELS 3 Yrotation Xrotation Zrotation
                  JOINT rightLittleIntermediate
                  {
                    OFFSET -0.21757715980000092 -0.011771559690000988 0.01201554387
                    CHANNELS 3 Yrotation Xrotation Zrotation
                    JOINT rightLittleDistal
                    {
                      OFFSET -0.1475201849000004 -0.00822055339600003 0.006082065407000015
                      CHANNELS 3 Yrotation Xrotation Zrotation
                      End Site
                      {
                        OFFSET -0.1475201849000004 -0.00822055339600003 0.006082065407000015
                      }
                    }
                  }
                }
                JOINT rightRingProximal
                {
                  OFFSET -0.5800810755299999 0.027657985680600072 -0.12066365025000003
                  CHANNELS 3 Yrotation Xrotation Zrotation
                  JOINT rightRingIntermediate
                  {
                    OFFSET -0.26166445029999974 -0.013623118409999302 0.011164098990000045
                    CHANNELS 3 Yrotation Xrotation Zrotation
                    JOINT rightRingDistal
                    {
                      OFFSET -0.17666387530000027 -0.009072900100000503 0.005668185599999959
                      CHANNELS 3 Yrotation Xrotation Zrotation
                      End Site
                      {
                        OFFSET -0.17666387530000027 -0.009072900100000503 0.005668185599999959
                      }
                    }
                  }
                }
                JOINT rightThumbProximal
                {
                  OFFSET -0.10997596379000074 -0.09577489355940072 0.16989765924999997
                  CHANNELS 3 Yrotation Xrotation Zrotation
                  JOINT rightThumbIntermediate
                  {
                    OFFSET -0.31036620999999986 -0.08229339117999834 0.15440884469999996
                    CHANNELS 3 Yrotation Xrotation Zrotation
                    JOINT rightThumbDistal
                    {
                      OFFSET -0.21631306399999906 -0.08825326400000111 0.018656797720000014
                      CHANNELS 3 Yrotation Xrotation Zrotation
                      End Site
                      {
                        OFFSET -0.21631306399999906 -0.08825326400000111 0.018656797720000014
                      }
                    }
                  }
                }
              }
            }
          }
        }
      }
    }
  }
}
MOTION
Frames: 9
Frame Time: 0.03333333333333333
5.366740723532839 -6.392201299302345 0.1011739557683526 -179.53785581174412 51.996418847857065 0.23121615886173658 177.45877635321563 -24.309764193374534 -146.1186941704968 140.5221124511054 81.77056273291349 155.1462776495151 1.7025855643318228 -0.8459094251737235 12.494325438808058 0 0 0 -177.46024898303352 -24.28761172686187 146.1060477716453 -140.4410250022124 81.77877424568021 -155.08593117816793 -1.7142545203436075 -0.8381437820765367 -12.507092533919565 0 0 0 -0.14079304899906123 27.127141790988507 -0.23206125303150935 -0.9653826400313873 31.84737462813646 -1.120543146402424 0 0 0 -34.81066927740577 -17.443454471099376 18.073861197057226 -40.63387812668223 -2.4259922368195697 4.029156651292598 -9.751031273656096 -11.133691612360716 7.090375923414974 -6.918742861365431 -7.8879816498881645 59.68523594849423 0 0 0 0 0 0 0 0 0 0 0 0 0 0 0 0 0 0 0 0 0 0 0 0 0 0 0 0 0 0 0 0 0 0 0 0 0 0 0 0 0 0 0 0 0 -0.001672090221531726 -7.059035948658944 9.997306476140079 0 -2.916443954248481 0 0 0 0 0 0 0 0 0 0 27.029654993500618 -20.0962600857013 -12.972028487963007 55.83313787596239 -0.7844977780362243 -4.458921367097092 12.15094329651629 -10.528388998901637 -10.890581607372512 -3.044295822276809 -6.321291107898341 -58.55609284870865 0 0 0 0 0 0 0 0 0 0 0 0 0 0 0 0 0 0 0 0 0 0 0 0 0 0 0 0 0 0 0 0 0 0 0 0 0 0 0 0 0 0 0 0 0
5.366740723532839 -6.392201299302345 0.09049221176264205 -179.53785581174412 51.996418847857065 0.23121615886173658 177.45877635321563 -24.309764193374534 -146.1186941704968 140.5221124511054 81.77056273291349 155.1462776495151 1.6228826654080533 -0.982432860902644 12.46961353777763 0 0 0 -177.46024828121597 -24.28761172686187 146.1060477716453 -140.4410250022124 81.77877424568021 -155.08593117816793 -1.6349263728144967 -0.9742642579238402 -12.482806310358376 0 0 0 -0.1402747079158153 26.70133454183593 -0.2309634067085505 -0.9703820266823797 32.32337285998707 -1.1299680874278193 0 0 0 -35.72686378373782 -17.12233271572372 18.458651824300446 -39.69778193035456 -2.5200423261819447 3.9811065698363337 -9.51869836383862 -11.174887455234128 6.826234123050669 -7.187026946823919 -7.855658850592194 59.936739134128324 0 0 0 0 0 0 0 0 0 0 0 0 0 0 0 0 0 0 0 0 0 0 0 0 0 0 0 0 0 0 0 0 0 0 0 0 0 0 0 0 0 0 0 0 0 -0.001607206265131607 -8.273649205145581 9.997351141213695 0 -3.7748341298872092 0 0 0 0 0 0 0 0 0 0 27.77389820826908 -19.856880863248623 -13.290012548894046 55.2095806476911 -0.8506321647952818 -4.439969800244792 11.81544618045932 -10.59281230458204 -10.770621400363648 -2.782730448902172 -6.315632071557248 -58.73304179591984 0 0 0 0 0 0 0 0 0 0 0 0 0 0 0 0 0 0 0 0 0 0 0 0 0 0 0 0 0 0 0 0 0 0 0 0 0 0 0 0 0 0 0 0 0
5.366740723532839 -6.392201299302345 0.0798104677569315 -179.53785581174412 51.996418847857065 0.23121615886173658 177.45877635321563 -24.309764193374534 -146.1186941704968 140.5221124511054 81.77056273291349 155.1462776495151 1.5432364193354904 -1.1189890945619565 12.445096002433754 0 0 0 -177.46024828121597 -24.28761172686187 146.1060477716453 -140.4410250022124 81.77877424568021 -155.08593117816793 -1.5556542243806395 -1.1104177194701 -12.458706247034367 0 0 0 -0.13976790541943784 26.275568671179556 -0.22987514432734535 -0.9755024848842254 32.799347294089415 -1.1394937053892977 0 0 0 -36.63897361110289 -16.795489537175673 18.83726820067307 -38.76178652819289 -2.613269974070799 3.9315338017810175 -9.286148223180685 -11.215026396665271 6.561894904729262 -7.45513974553686 -7.822173422001925 60.1880694901286 0 0 0 0 0 0 0 0 0 0 0 0 0 0 0 0 0 0 0 0 0 0 0 0 0 0 0 0 0 0 0 0 0 0 0 0 0 0 0 0 0 0 0 0 0 -0.0015426524525035102 -9.489772261490486 9.997393150027403 0 -4.633754007518807 0 0 0 0 0 0 0 0 0 0 28.51547493287396 -19.61369114734608 -13.604138261370663 54.58606175502197 -0.916548343798237 -4.42030177267525 11.47975826280702 -10.656540253651183 -10.65026228054562 -2.5211964296761695 -6.309166517860893 -58.90993821641041 0 0 0 0 0 0 0 0 0 0 0 0 0 0 0 0 0 0 0 0 0 0 0 0 0 0 0 0 0 0 0 0 0 0 0 0 0 0 0 0 0 0 0 0 0
5.366740723532839 -6.392201299302345 0.06330756377886347 -179.53785581174412 51.996418847857065 0.23121615886173658 177.45877635321563 -24.309764193374534 -146.1186941704968 140.5221124511054 81.77056273291349 155.1462776495151 1.463644470832077 -1.2555773049902572 12.420764832708164 0 0 0 -177.46024828121597 -24.28761172686187 146.1060477716453 -140.4410250022124 81.77877424568021 -155.08593117816793 -1.4764355290555164 -1.2466021111021814 -12.434797888350426 0 0 0 -0.13927141655152886 25.849826031845968 -0.22879469841915487 -0.9807440230382382 33.275269389777165 -1.1491199748051268 0 0 0 -37.546872298285145 -16.46305805770349 19.20960865774357 -37.82603154528461 -2.7056376394189847 3.8804611337679984 -9.053386590877643 -11.254111498720214 6.297366318644051 -7.723058682566375 -7.787523909825062 60.439190073553455 0 0 0 0 0 0 0 0 0 0 0 0 0 0 0 0 0 0 0 0 0 0 0 0 0 0 0 0 0 0 0 0 0 0 0 0 0 0 0 0 0 0 0 0 0 -0.0014783425888495556 -10.707129564624967 9.997434201166524 0 -5.49310989481693 0 0 0 0 0 0 0 0 0 0 29.254332643035116 -19.366765470703466 -13.914355117881982 53.96261497674969 -0.9822357169375492 -4.399921000301639 11.143875723364514 -10.719568144907024 -10.529502133597022 -2.2596969879069473 -6.301900919158231 -59.08679829476293 0 0 0 0 0 0 0 0 0 0 0 0 0 0 0 0 0 0 0 0 0 0 0 0 0 0 0 0 0 0 0 0 0 0 0 0 0 0 0 0 0 0 0 0 0
5.366740723532839 -6.392201299302345 0.04680439140852411 -179.53785581174412 51.996418847857065 0.23121615886173658 177.45877635321563 -24.309764193374534 -146.1186941704968 140.5221124511054 81.77056273291349 155.1462776495151 1.3841076668733696 -1.3921978462137177 12.396626405882717 0 0 0 -177.46024828121597 -24.28761172686187 146.1060477716453 -140.4410250022124 81.77877424568021 -155.08593117816793 -1.3972699545679228 -1.3828178865326517 -12.411070846951606 0 0 0 -0.13878628970666115 25.424126476024437 -0.22772152672187898 -0.9861102900814226 33.75111800373379 -1.158850175270999 0 0 0 -38.45046356892228 -16.125214282532003 19.575593096384964 -36.89062327655422 -2.7971116048415907 3.8279094505603073 -8.820432032246135 -11.29214148051211 6.032660791860312 -7.990783891580329 -7.751714037403769 60.69011612291356 0 0 0 0 0 0 0 0 0 0 0 0 0 0 0 0 0 0 0 0 0 0 0 0 0 0 0 0 0 0 0 0 0 0 0 0 0 0 0 0 0 0 0 0 0 -0.0014151954756702221 -11.925453941237167 9.99747536478275 0 -6.352805205970187 0 0 0 0 0 0 0 0 0 0 29.990382097708697 -19.116177757190066 -14.220597421599889 53.33928843302322 -1.0476812285490074 -4.378830343446927 10.80781955062189 -10.781899964071656 -10.408355722600502 -1.998239672815278 -6.293832732108466 -59.26361348889197 0 0 0 0 0 0 0 0 0 0 0 0 0 0 0 0 0 0 0 0 0 0 0 0 0 0 0 0 0 0 0 0 0 0 0 0 0 0 0 0 0 0 0 0 0
5.366740723532839 -6.392201299302345 0.030301487430456065 -179.53785581174412 51.996418847857065 0.23121615886173658 177.45877635321563 -24.309764193374534 -146.1186941704968 140.5221124511054 81.77056273291349 155.1462776495151 1.3046255463878402 -1.5288477638449278 12.372671996782403 0 0 0 -177.46024828121597 -24.28761172686187 146.1060477716453 -140.4410250022124 81.77877424568021 -155.08593117816793 -1.3181582745864486 -1.519063045131276 -12.38753455355209 0 0 0 -0.1383110886018924 24.99849138631717 -0.22665683190564662 -0.9916025504890137 34.22689196709878 -1.168687542110647 0 0 0 -39.34965877710003 -15.78211635971582 19.935130263158424 -35.95567729544376 -2.887655780026478 3.7739023635099485 -8.587285548174364 -11.329108974018911 5.76778457933467 -8.258296713430955 -7.714746672262262 60.94080754720714 0 0 0 0 0 0 0 0 0 0 0 0 0 0 0 0 0 0 0 0 0 0 0 0 0 0 0 0 0 0 0 0 0 0 0 0 0 0 0 0 0 0 0 0 0 -0.001351113988755024 -13.144465540432558 9.997513267404251 0 -7.212741685500004 0 0 0 0 0 0 0 0 0 0 30.72358828396555 -18.86200852475541 -14.522821099456825 52.716124176050315 -1.1128727807712577 -4.357035638401548 10.471585678793414 -10.843520575462627 -10.286818859487651 -1.7368307488583543 -6.28496328237146 -59.44037111899026 0 0 0 0 0 0 0 0 0 0 0 0 0 0 0 0 0 0 0 0 0 0 0 0 0 0 0 0 0 0 0 0 0 0 0 0 0 0 0 0 0 0 0 0 0
5.366740723532839 -6.392201299302345 0.01379831506011671 -179.53785581174412 51.996418847857065 0.23121615886173658 177.45877635321563 -24.309764193374534 -146.1186941704968 140.5221124511054 81.77056273291349 155.1462776495151 1.2251967372454207 -1.6655283744424876 12.348905293121984 0 0 0 -177.46024828121597 -24.28761172686187 146.1060477716453 -140.4410250022124 81.77877424568021 -155.08593117816793 -1.2390991894769796 -1.6553370814897743 -12.364182266821063 0 0 0 -0.13784685507036876 24.572921130720612 -0.22559999710678894 -0.9972249212613508 34.70256494546981 -1.1786344198095138 0 0 0 -40.24437257018683 -15.433927727129019 20.288153518925803 -35.021319222889375 -2.977236616363652 3.7184635498278866 -8.353957761165233 -11.365016195782982 5.502747612879891 -8.525599815940986 -7.676625549172545 61.19130445265265 0 0 0 0 0 0 0 0 0 0 0 0 0 0 0 0 0 0 0 0 0 0 0 0 0 0 0 0 0 0 0 0 0 0 0 0 0 0 0 0 0 0 0 0 0 -0.0012890426994373514 -14.36389556677264 9.997550340311722 0 -8.072824301980903 0 0 0 0 0 0 0 0 0 0 31.45390057508072 -18.60434481705427 -14.820987797663307 52.09312142656295 -1.177803396538503 -4.334539737780443 10.135190093803827 -10.90443830672354 -10.164908702505471 -1.475476159015958 -6.275295187502911 -59.61707675401048 0 0 0 0 0 0 0 0 0 0 0 0 0 0 0 0 0 0 0 0 0 0 0 0 0 0 0 0 0 0 0 0 0 0 0 0 0 0 0 0 0 0 0 0 0
5.366740723532839 -6.392201299302345 -0.002704588917951335 -179.53785581174412 51.996418847857065 0.23121615886173658 177.45877635321563 -24.309764193374534 -146.1186941704968 140.5221124511054 81.77056273291349 155.1462776495151 1.1458208094184463 -1.802237685889789 12.32532852678585 0 0 0 -177.46024757939844 -24.28761172686187 146.10604257223227 -140.4410250022124 81.77877424568021 -155.08593117816793 -1.1600922039703532 -1.7916409858396347 -12.34102165962057 0 0 0 -0.1373923537511097 24.147444082200057 -0.22455037196583177 -1.0029799333466634 35.17811395152501 -1.188693527559142 0 0 0 -41.13452460030276 -15.080817039309464 20.63459069357422 -34.08768876032067 -3.065818405265288 3.6616185720396217 -8.120463421267011 -11.399864501739703 5.237561873658296 -8.79266826493731 -7.63735182380146 61.4415391665422 0 0 0 0 0 0 0 0 0 0 0 0 0 0 0 0 0 0 0 0 0 0 0 0 0 0 0 0 0 0 0 0 0 0 0 0 0 0 0 0 0 0 0 0 0 -0.0012268791634382741 -15.583458452949571 9.9975869122283 0 -8.932954102914449 0 0 0 0 0 0 0 0 0 0 32.18124479892117 -18.34325495168873 -15.115042906907636 51.470339676439046 -1.2424577699675075 -4.311349065595933 9.798635213957482 -10.964642360155475 -10.042626025457748 -1.2141832058473314 -6.2648220499438425 -59.79370009824506 0 0 0 0 0 0 0 0 0 0 0 0 0 0 0 0 0 0 0 0 0 0 0 0 0 0 0 0 0 0 0 0 0 0 0 0 0 0 0 0 0 0 0 0 0
5.366740723532839 -6.392201299302345 -0.01920776128829069 -179.53785581174412 51.996418847857065 0.23121615886173658 177.45877635321563 -24.309764193374534 -146.1186941704968 140.5221124511054 81.77056273291349 155.1462776495151 1.0664986787711739 -1.9389762692332495 12.30194550597948 0 0 0 -177.46024828121597 -24.28761172686187 146.1060477716453 -140.4410250022124 81.77877424568021 -155.08593117816793 -1.081136053094444 -1.9279710512323651 -12.318045069972541 0 0 0 -0.13694850178359222 23.722054610080974 -0.2235083067928456 -1.0088706564902967 35.65354464160195 -1.1988694153844033 0 0 0 -42.020033855464185 -14.722952805535595 20.97438352513596 -33.1548901598301 -3.153370117684522 3.603395149717231 -7.886805261633879 -11.43364567621708 4.972232648856618 -9.059500211715337 -7.5969283802803735 61.69154248085217 0 0 0 0 0 0 0 0 0 0 0 0 0 0 0 0 0 0 0 0 0 0 0 0 0 0 0 0 0 0 0 0 0 0 0 0 0 0 0 0 0 0 0 0 0 -0.0011655601290231788 -16.80288640765199 9.997622652817698 0 -9.793034837462265 0 0 0 0 0 0 0 0 0 0 32.90560024401525 -18.07883894149502 -15.404956708542862 50.84783326567399 -1.3068233671990994 -4.287467834238084 9.461926674714922 -11.024131497674556 -9.919977729032864 -0.9529570230631231 -6.253555083340833 -59.9702761800964 0 0 0 0 0 0 0 0 0 0 0 0 0 0 0 0 0 0 0 0 0 0 0 0 0 0 0 0 0 0 0 0 0 0 0 0 0 0 0 0 0 0 0 0 0
